<svg width="36" height="27" viewBox="0 0 36 27" fill="none" xmlns="http://www.w3.org/2000/svg">
<path d="M4.88547 6.78518L2.44292 4.34013L0 6.78518L2.44292 9.23022L4.88547 6.78518ZM36 6.78518L33.5578 4.34013L31.1142 6.78518L33.5578 9.23022L36 6.78518ZM21.384 3.33903L18.0489 0L14.7126 3.33903L18.0489 6.67776L21.384 3.33903ZM25.1005 13.851L18.0486 7.04128L10.9964 13.851L3.68477 8.77482L5.75337 23.4794H30.3443L32.4129 8.77482L25.1005 13.851ZM18.0486 19.9865L15.4312 17.3677L18.0486 14.7471L20.6655 17.3677L18.0486 19.9865ZM30.3436 26.8191H5.7533V24.213L30.3442 24.2129V26.8189L30.3436 26.8191Z" fill="black"/>
</svg>
