<svg width="96" height="96" viewBox="0 0 96 96" fill="none" xmlns="http://www.w3.org/2000/svg">
<g clip-path="url(#clip0_1_124)">
<path fill-rule="evenodd" clip-rule="evenodd" d="M61.3337 28.0447C57.3869 25.4076 52.7467 24 48 24V0C57.4934 0 66.7738 2.81515 74.6674 8.08946C82.561 13.3638 88.7131 20.8603 92.3462 29.6311C95.9791 38.4019 96.9298 48.0533 95.0777 57.3643C93.2256 66.6754 88.6541 75.2282 81.941 81.941C75.2282 88.6541 66.6754 93.2256 57.3643 95.0777C48.0533 96.9298 38.4019 95.9791 29.6311 92.3462C20.8603 88.7131 13.3638 82.561 8.08946 74.6674C2.81515 66.7738 0 57.4934 0 48H24C24 52.7467 25.4076 57.3869 28.0447 61.3337C30.6818 65.2805 34.4302 68.3566 38.8157 70.1731C43.201 71.9897 48.0266 72.4649 52.6822 71.5387C57.3377 70.6128 61.614 68.327 64.9706 64.9706C68.327 61.614 70.6128 57.3377 71.5387 52.6822C72.4649 48.0266 71.9897 43.201 70.1731 38.8157C68.3566 34.4302 65.2805 30.6818 61.3337 28.0447Z" fill="white"/>
<path fill-rule="evenodd" clip-rule="evenodd" d="M24 1.0395e-05C24 3.15174 23.3792 6.2726 22.1731 9.1844C20.967 12.0962 19.1992 14.742 16.9706 16.9706C14.742 19.1992 12.0962 20.967 9.1844 22.1731C6.27258 23.3792 3.15172 24 1.04906e-06 24L0 48C6.30344 48 12.5452 46.7585 18.3688 44.3462C24.1925 41.934 29.484 38.3983 33.941 33.941C38.3983 29.484 41.934 24.1925 44.3462 18.3688C46.7585 12.5452 48 6.30344 48 0L24 1.0395e-05Z" fill="white"/>
</g>
<defs>
<clipPath id="clip0_1_124">
<rect width="96" height="96" fill="white"/>
</clipPath>
</defs>
</svg>
